<?xml version="1.0" encoding="UTF-8"?>
<svg xmlns="http://www.w3.org/2000/svg" viewBox="0 0 1168.39 141.2">
  <defs>
    <style>
      .cls-1 {
        fill: #6d6059;
      }

      .cls-1, .cls-2, .cls-3, .cls-4, .cls-5, .cls-6, .cls-7, .cls-8 {
        stroke-width: 0px;
      }

      .cls-9 {
        letter-spacing: -.06em;
      }

      .cls-10 {
        letter-spacing: -.05em;
      }

      .cls-11 {
        font-family: Ubuntu-Bold, Ubuntu;
        font-size: 68.25px;
        font-weight: 700;
      }

      .cls-11, .cls-8 {
        fill: #1d1d1b;
      }

      .cls-2 {
        fill: #fde4ce;
      }

      .cls-12 {
        letter-spacing: -.04em;
      }

      .cls-3 {
        fill: #546850;
      }

      .cls-4 {
        fill: #baafaa;
      }

      .cls-13 {
        letter-spacing: -.07em;
      }

      .cls-5 {
        fill: #f18732;
      }

      .cls-6 {
        fill: #f08371;
      }

      .cls-7 {
        fill: #848d7a;
      }

      .cls-14 {
        letter-spacing: -.02em;
      }
    </style>
  </defs>
  <g id="Lager_1" data-name="Lager 1">
    <path class="cls-8" d="M810.03,120.07c-.31-.09-.74-.17-1.28-.24-.52-.09-1.22-.13-2.12-.13-1.69,0-2.99.55-3.91,1.65-.9,1.1-1.35,2.56-1.35,4.38,0,1.01.12,1.88.37,2.6.27.72.62,1.31,1.04,1.79.45.47.95.82,1.52,1.04.58.22,1.18.34,1.79.34.83,0,1.6-.11,2.29-.34.7-.25,1.25-.53,1.65-.84v-10.25ZM810.06,133.08c-.27.18-.8.42-1.58.71-.76.27-1.66.4-2.7.4s-2.06-.17-3-.51c-.92-.34-1.73-.85-2.43-1.55-.7-.72-1.25-1.61-1.65-2.66s-.61-2.31-.61-3.78c0-1.28.19-2.45.57-3.51.38-1.08.93-2,1.65-2.76.74-.79,1.64-1.39,2.7-1.82,1.06-.45,2.25-.67,3.57-.67,1.46,0,2.73.11,3.81.34,1.1.2,2.02.39,2.76.57v15.64c0,2.7-.7,4.65-2.09,5.87-1.39,1.21-3.51,1.82-6.34,1.82-1.1,0-2.15-.09-3.13-.27-.97-.18-1.81-.39-2.53-.64l.57-2.73c.63.25,1.39.46,2.29.64.92.2,1.88.3,2.87.3,1.87,0,3.2-.37,4.01-1.11.83-.74,1.25-1.92,1.25-3.54v-.74ZM779.72,117.81c.72-.18,1.67-.37,2.87-.57s2.56-.3,4.11-.3c1.39,0,2.55.2,3.47.61.92.38,1.65.93,2.19,1.65.56.7.96,1.54,1.18,2.53s.34,2.08.34,3.27v9.84h-3.13v-9.17c0-1.08-.08-2-.24-2.76-.13-.76-.37-1.38-.71-1.85s-.79-.81-1.35-1.01c-.56-.22-1.26-.34-2.09-.34-.34,0-.69.01-1.04.03s-.71.06-1.04.1c-.31.02-.61.06-.88.1-.25.04-.43.08-.54.1v14.8h-3.13v-17.02ZM772.74,114.14c-.56,0-1.04-.18-1.45-.54-.38-.38-.57-.89-.57-1.52s.19-1.12.57-1.48c.4-.38.89-.57,1.45-.57s1.03.19,1.42.57c.4.36.61.85.61,1.48s-.2,1.13-.61,1.52c-.38.36-.85.54-1.42.54ZM774.33,134.83h-3.13v-17.53h3.13v17.53ZM751.83,117.81c.72-.18,1.67-.37,2.87-.57,1.19-.2,2.56-.3,4.11-.3,1.39,0,2.55.2,3.47.61.92.38,1.65.93,2.19,1.65.56.7.96,1.54,1.18,2.53.22.99.34,2.08.34,3.27v9.84h-3.13v-9.17c0-1.08-.08-2-.24-2.76-.13-.76-.37-1.38-.71-1.85s-.79-.81-1.35-1.01c-.56-.22-1.26-.34-2.09-.34-.34,0-.69.01-1.04.03-.36.02-.71.06-1.04.1-.31.02-.61.06-.88.1-.25.04-.43.08-.54.1v14.8h-3.13v-17.02ZM741.2,117.31h6.64v2.63h-6.64v8.09c0,.88.07,1.61.2,2.19.13.56.34,1.01.61,1.35.27.31.61.54,1.01.67s.88.2,1.42.2c.94,0,1.7-.1,2.26-.3.58-.22.99-.38,1.21-.47l.61,2.6c-.31.16-.87.35-1.65.57-.79.25-1.69.37-2.7.37-1.19,0-2.18-.15-2.97-.44-.76-.31-1.38-.78-1.85-1.38s-.81-1.35-1.01-2.22c-.18-.9-.27-1.93-.27-3.1v-15.64l3.13-.54v5.43ZM734.31,135.17c-1.93-.04-3.3-.46-4.11-1.25s-1.21-2.01-1.21-3.67v-21.03l3.13-.54v21.07c0,.52.04.94.13,1.28.09.34.24.61.44.81s.47.36.81.47c.34.09.75.17,1.25.24l-.44,2.63ZM717.11,116.87c1.26,0,2.31.17,3.17.51.88.31,1.57.78,2.09,1.38.54.58.92,1.29,1.15,2.12.22.81.34,1.71.34,2.7v10.96c-.27.04-.65.11-1.15.2-.47.07-1.01.13-1.62.2s-1.27.12-1.99.17c-.7.07-1.39.1-2.09.1-.99,0-1.9-.1-2.73-.3-.83-.2-1.55-.52-2.16-.94-.61-.45-1.08-1.03-1.42-1.75s-.51-1.58-.51-2.6.19-1.8.57-2.49c.4-.7.94-1.26,1.62-1.69s1.46-.74,2.36-.94c.9-.2,1.84-.3,2.83-.3.31,0,.64.02.98.07.34.02.65.07.94.13.31.04.58.09.81.13.22.04.38.08.47.1v-.88c0-.52-.06-1.02-.17-1.52-.11-.52-.31-.97-.61-1.35-.29-.4-.7-.72-1.21-.94-.49-.25-1.15-.37-1.96-.37-1.03,0-1.94.08-2.73.24-.76.13-1.34.28-1.72.44l-.37-2.6c.4-.18,1.08-.35,2.02-.51.94-.18,1.97-.27,3.07-.27ZM717.38,132.58c.74,0,1.39-.01,1.96-.03.58-.04,1.07-.11,1.45-.2v-5.22c-.22-.11-.6-.2-1.11-.27-.49-.09-1.1-.13-1.82-.13-.47,0-.98.03-1.52.1-.52.07-1,.21-1.45.44-.43.2-.79.49-1.08.88-.29.36-.44.84-.44,1.45,0,1.12.36,1.91,1.08,2.36.72.43,1.7.64,2.93.64ZM708.21,117.31c-.88,3.28-1.91,6.43-3.1,9.44-1.17,3.01-2.3,5.71-3.4,8.09h-2.83c-1.1-2.38-2.25-5.08-3.44-8.09-1.17-3.01-2.19-6.16-3.07-9.44h3.37c.27,1.1.58,2.28.94,3.54.38,1.24.78,2.47,1.18,3.71.43,1.21.85,2.39,1.28,3.54.43,1.15.83,2.17,1.21,3.07.38-.9.79-1.92,1.21-3.07.43-1.15.84-2.33,1.25-3.54.43-1.24.82-2.47,1.18-3.71.38-1.26.71-2.44.98-3.54h3.24ZM687.27,116.93c.27,0,.57.02.91.07.36.02.71.07,1.04.13.34.05.64.1.91.17.29.05.51.09.64.13l-.54,2.73c-.25-.09-.66-.19-1.25-.3-.56-.13-1.29-.2-2.19-.2-.58,0-1.17.07-1.75.2-.56.11-.93.19-1.11.24v14.73h-3.13v-16.79c.74-.27,1.66-.52,2.76-.74,1.1-.25,2.34-.37,3.71-.37ZM671.36,114.07c-.52,0-.98-.18-1.38-.54-.38-.38-.57-.87-.57-1.45s.19-1.06.57-1.42c.4-.38.87-.57,1.38-.57s.97.19,1.35.57c.4.36.61.83.61,1.42s-.2,1.07-.61,1.45c-.38.36-.83.54-1.35.54ZM664.96,114.07c-.52,0-.98-.18-1.38-.54-.38-.38-.57-.87-.57-1.45s.19-1.06.57-1.42c.4-.38.87-.57,1.38-.57s.97.19,1.35.57c.4.36.61.83.61,1.42s-.2,1.07-.61,1.45c-.38.36-.83.54-1.35.54ZM673.12,126.07c0-1.98-.45-3.54-1.35-4.69-.88-1.17-2.08-1.75-3.61-1.75s-2.74.58-3.64,1.75c-.88,1.15-1.31,2.71-1.31,4.69s.44,3.55,1.31,4.72c.9,1.15,2.11,1.72,3.64,1.72s2.73-.57,3.61-1.72c.9-1.17,1.35-2.74,1.35-4.72ZM676.39,126.07c0,1.39-.2,2.65-.61,3.78s-.98,2.09-1.72,2.9c-.72.81-1.58,1.44-2.6,1.89-1.01.43-2.11.64-3.3.64s-2.29-.21-3.3-.64c-1.01-.45-1.89-1.08-2.63-1.89-.72-.81-1.28-1.78-1.69-2.9s-.61-2.38-.61-3.78.2-2.62.61-3.74c.4-1.15.97-2.12,1.69-2.93.74-.81,1.62-1.43,2.63-1.85,1.01-.45,2.11-.67,3.3-.67s2.29.22,3.3.67c1.01.43,1.88,1.04,2.6,1.85.74.81,1.31,1.79,1.72,2.93.4,1.12.61,2.37.61,3.74ZM654.75,108.68c.92,0,1.71.07,2.36.2.67.13,1.15.26,1.42.37l-.57,2.7c-.27-.13-.65-.26-1.15-.37-.49-.13-1.1-.2-1.82-.2-1.46,0-2.48.4-3.07,1.21-.58.79-.88,1.85-.88,3.2v1.52h6.74v2.63h-6.74v14.9h-3.13v-19.11c0-2.25.55-3.98,1.65-5.19,1.1-1.24,2.83-1.85,5.19-1.85ZM636.15,135.17c-1.93-.04-3.3-.46-4.11-1.25-.81-.79-1.21-2.01-1.21-3.67v-21.03l3.13-.54v21.07c0,.52.05.94.13,1.28.09.34.24.61.44.81.2.2.47.36.81.47.34.09.75.17,1.25.24l-.44,2.63ZM618.94,116.87c1.26,0,2.31.17,3.17.51.88.31,1.57.78,2.09,1.38.54.58.92,1.29,1.15,2.12.22.81.34,1.71.34,2.7v10.96c-.27.04-.65.11-1.15.2-.47.07-1.01.13-1.62.2s-1.27.12-1.99.17c-.7.07-1.39.1-2.09.1-.99,0-1.9-.1-2.73-.3-.83-.2-1.55-.52-2.16-.94-.61-.45-1.08-1.03-1.42-1.75s-.51-1.58-.51-2.6.19-1.8.57-2.49c.4-.7.94-1.26,1.62-1.69s1.46-.74,2.36-.94c.9-.2,1.84-.3,2.83-.3.31,0,.64.02.98.07.34.02.65.07.94.13.31.04.58.09.81.13.22.04.38.08.47.1v-.88c0-.52-.06-1.02-.17-1.52-.11-.52-.31-.97-.61-1.35-.29-.4-.7-.72-1.21-.94-.49-.25-1.15-.37-1.96-.37-1.03,0-1.94.08-2.73.24-.76.13-1.34.28-1.72.44l-.37-2.6c.4-.18,1.08-.35,2.02-.51.94-.18,1.97-.27,3.07-.27ZM619.21,132.58c.74,0,1.39-.01,1.96-.03.58-.04,1.07-.11,1.45-.2v-5.22c-.22-.11-.6-.2-1.11-.27-.49-.09-1.1-.13-1.82-.13-.47,0-.98.03-1.52.1-.52.07-1,.21-1.45.44-.43.2-.79.49-1.08.88-.29.36-.44.84-.44,1.45,0,1.12.36,1.91,1.08,2.36.72.43,1.7.64,2.93.64ZM602.65,117.31h6.64v2.63h-6.64v8.09c0,.88.07,1.61.2,2.19.13.56.34,1.01.61,1.35.27.31.61.54,1.01.67s.88.2,1.42.2c.94,0,1.7-.1,2.26-.3.58-.22.99-.38,1.21-.47l.61,2.6c-.31.16-.87.35-1.65.57-.79.25-1.69.37-2.7.37-1.19,0-2.18-.15-2.97-.44-.76-.31-1.38-.78-1.85-1.38s-.81-1.35-1.01-2.22c-.18-.9-.27-1.93-.27-3.1v-15.64l3.13-.54v5.43ZM592.74,114.14c-.56,0-1.04-.18-1.45-.54-.38-.38-.57-.89-.57-1.52s.19-1.12.57-1.48c.4-.38.89-.57,1.45-.57s1.03.19,1.42.57c.4.36.61.85.61,1.48s-.2,1.13-.61,1.52c-.38.36-.85.54-1.42.54ZM594.33,134.83h-3.13v-17.53h3.13v17.53ZM582.66,120.07c-.31-.09-.74-.17-1.28-.24-.52-.09-1.22-.13-2.12-.13-1.69,0-2.99.55-3.91,1.65-.9,1.1-1.35,2.56-1.35,4.38,0,1.01.12,1.88.37,2.6.27.72.62,1.31,1.04,1.79.45.47.96.82,1.52,1.04.58.22,1.18.34,1.79.34.83,0,1.6-.11,2.29-.34.7-.25,1.25-.53,1.65-.84v-10.25ZM582.69,133.08c-.27.18-.8.42-1.58.71-.76.27-1.66.4-2.7.4s-2.06-.17-3-.51c-.92-.34-1.73-.85-2.43-1.55-.7-.72-1.25-1.61-1.65-2.66s-.61-2.31-.61-3.78c0-1.28.19-2.45.57-3.51.38-1.08.93-2,1.65-2.76.74-.79,1.64-1.39,2.7-1.82,1.06-.45,2.25-.67,3.57-.67,1.46,0,2.73.11,3.81.34,1.1.2,2.02.39,2.76.57v15.64c0,2.7-.7,4.65-2.09,5.87s-3.51,1.82-6.34,1.82c-1.1,0-2.15-.09-3.13-.27-.97-.18-1.81-.39-2.53-.64l.57-2.73c.63.25,1.39.46,2.29.64.92.2,1.88.3,2.87.3,1.87,0,3.2-.37,4.01-1.11.83-.74,1.25-1.92,1.25-3.54v-.74ZM564.73,114.14c-.56,0-1.04-.18-1.45-.54-.38-.38-.57-.89-.57-1.52s.19-1.12.57-1.48c.4-.38.89-.57,1.45-.57s1.03.19,1.42.57c.4.36.61.85.61,1.48s-.2,1.13-.61,1.52c-.38.36-.85.54-1.42.54ZM566.31,134.83h-3.13v-17.53h3.13v17.53ZM554.66,109.22l3.13-.54v25.65c-.72.2-1.64.4-2.76.61-1.12.2-2.42.3-3.88.3-1.35,0-2.56-.21-3.64-.64s-2-1.03-2.76-1.82c-.76-.79-1.36-1.74-1.79-2.87-.4-1.15-.61-2.43-.61-3.84s.17-2.58.51-3.71c.36-1.12.88-2.09,1.55-2.9s1.49-1.44,2.46-1.89c.99-.45,2.11-.67,3.37-.67,1.01,0,1.9.13,2.66.4.79.27,1.37.53,1.75.78v-8.87ZM554.66,121.01c-.38-.31-.93-.62-1.65-.91-.72-.29-1.51-.44-2.36-.44-.9,0-1.67.17-2.33.51-.63.31-1.15.76-1.55,1.35-.4.56-.7,1.24-.88,2.02-.18.79-.27,1.63-.27,2.53,0,2.04.51,3.63,1.52,4.75,1.01,1.1,2.36,1.65,4.05,1.65.85,0,1.56-.03,2.12-.1.58-.09,1.03-.18,1.35-.27v-11.09ZM529,116.93c.27,0,.57.02.91.07.36.02.71.07,1.04.13.34.05.64.1.91.17.29.05.51.09.64.13l-.54,2.73c-.25-.09-.66-.19-1.25-.3-.56-.13-1.29-.2-2.19-.2-.58,0-1.17.07-1.75.2-.56.11-.93.19-1.11.24v14.73h-3.13v-16.79c.74-.27,1.66-.52,2.76-.74,1.1-.25,2.34-.37,3.71-.37ZM513.09,114.07c-.52,0-.98-.18-1.38-.54-.38-.38-.57-.87-.57-1.45s.19-1.06.57-1.42c.4-.38.87-.57,1.38-.57s.97.19,1.35.57c.4.36.61.83.61,1.42s-.2,1.07-.61,1.45c-.38.36-.83.54-1.35.54ZM506.69,114.07c-.52,0-.98-.18-1.38-.54-.38-.38-.57-.87-.57-1.45s.19-1.06.57-1.42c.4-.38.87-.57,1.38-.57s.97.19,1.35.57c.4.36.61.83.61,1.42s-.2,1.07-.61,1.45c-.38.36-.83.54-1.35.54ZM514.84,126.07c0-1.98-.45-3.54-1.35-4.69-.88-1.17-2.08-1.75-3.61-1.75s-2.74.58-3.64,1.75c-.88,1.15-1.31,2.71-1.31,4.69s.44,3.55,1.31,4.72c.9,1.15,2.11,1.72,3.64,1.72s2.73-.57,3.61-1.72c.9-1.17,1.35-2.74,1.35-4.72ZM518.11,126.07c0,1.39-.2,2.65-.61,3.78s-.98,2.09-1.72,2.9c-.72.81-1.58,1.44-2.6,1.89-1.01.43-2.11.64-3.3.64s-2.29-.21-3.3-.64c-1.01-.45-1.89-1.08-2.63-1.89-.72-.81-1.28-1.78-1.69-2.9s-.61-2.38-.61-3.78.2-2.62.61-3.74c.4-1.15.97-2.12,1.69-2.93.74-.81,1.62-1.43,2.63-1.85,1.01-.45,2.11-.67,3.3-.67s2.29.22,3.3.67c1.01.43,1.88,1.04,2.6,1.85.74.81,1.31,1.79,1.72,2.93.4,1.12.61,2.37.61,3.74ZM496.48,108.68c.92,0,1.71.07,2.36.2.67.13,1.15.26,1.42.37l-.57,2.7c-.27-.13-.65-.26-1.15-.37-.49-.13-1.1-.2-1.82-.2-1.46,0-2.48.4-3.07,1.21-.58.79-.88,1.85-.88,3.2v1.52h6.74v2.63h-6.74v14.9h-3.13v-19.11c0-2.25.55-3.98,1.65-5.19,1.1-1.24,2.83-1.85,5.19-1.85ZM462.48,117.81c.72-.18,1.67-.37,2.87-.57,1.19-.2,2.56-.3,4.11-.3,1.39,0,2.55.2,3.47.61.92.38,1.65.93,2.19,1.65.56.7.96,1.54,1.18,2.53.22.99.34,2.08.34,3.27v9.84h-3.13v-9.17c0-1.08-.08-2-.24-2.76-.13-.76-.37-1.38-.71-1.85s-.79-.81-1.35-1.01c-.56-.22-1.26-.34-2.09-.34-.34,0-.69.01-1.04.03-.36.02-.71.06-1.04.1-.31.02-.61.06-.88.1-.25.04-.43.08-.54.1v14.8h-3.13v-17.02ZM454.71,124.38c.02-1.42-.34-2.57-1.08-3.47-.72-.92-1.72-1.38-3-1.38-.72,0-1.36.15-1.92.44-.54.27-1,.63-1.38,1.08-.38.45-.69.97-.91,1.55-.2.58-.34,1.18-.4,1.79h8.7ZM442.68,126.1c0-1.55.22-2.9.67-4.05.45-1.17,1.04-2.13,1.79-2.9s1.6-1.34,2.56-1.72,1.96-.57,2.97-.57c2.36,0,4.17.74,5.43,2.22,1.26,1.46,1.89,3.7,1.89,6.71v.54c0,.2-.01.39-.03.57h-12c.13,1.82.66,3.2,1.58,4.15.92.94,2.36,1.42,4.31,1.42,1.1,0,2.02-.09,2.76-.27.76-.2,1.34-.39,1.72-.57l.44,2.63c-.38.2-1.06.42-2.02.64-.94.22-2.02.34-3.24.34-1.53,0-2.85-.22-3.98-.67-1.1-.47-2.01-1.11-2.73-1.92-.72-.81-1.26-1.76-1.62-2.87-.34-1.12-.51-2.35-.51-3.67ZM433.35,117.31h6.64v2.63h-6.64v8.09c0,.88.07,1.61.2,2.19.13.56.34,1.01.61,1.35.27.31.61.54,1.01.67s.88.2,1.42.2c.94,0,1.7-.1,2.26-.3.58-.22.99-.38,1.21-.47l.61,2.6c-.31.16-.87.35-1.65.57-.79.25-1.69.37-2.7.37-1.19,0-2.18-.15-2.97-.44-.76-.31-1.38-.78-1.85-1.38s-.81-1.35-1.01-2.22c-.18-.9-.27-1.93-.27-3.1v-15.64l3.13-.54v5.43ZM422.65,124.38c.02-1.42-.34-2.57-1.08-3.47-.72-.92-1.72-1.38-3-1.38-.72,0-1.36.15-1.92.44-.54.27-1,.63-1.38,1.08-.38.45-.69.97-.91,1.55-.2.58-.34,1.18-.4,1.79h8.7ZM410.61,126.1c0-1.55.22-2.9.67-4.05.45-1.17,1.04-2.13,1.79-2.9s1.6-1.34,2.56-1.72,1.96-.57,2.97-.57c2.36,0,4.17.74,5.43,2.22,1.26,1.46,1.89,3.7,1.89,6.71v.54c0,.2-.01.39-.03.57h-12c.13,1.82.66,3.2,1.58,4.15.92.94,2.36,1.42,4.31,1.42,1.1,0,2.02-.09,2.76-.27.76-.2,1.34-.39,1.72-.57l.44,2.63c-.38.2-1.06.42-2.02.64-.94.22-2.02.34-3.24.34-1.53,0-2.85-.22-3.98-.67-1.1-.47-2.01-1.11-2.73-1.92-.72-.81-1.26-1.76-1.62-2.87-.34-1.12-.51-2.35-.51-3.67ZM392.33,134.83v-25.62l3.13-.54v8.97c.58-.22,1.2-.39,1.85-.51.67-.13,1.34-.2,1.99-.2,1.39,0,2.55.2,3.47.61.92.38,1.65.93,2.19,1.65.56.7.95,1.54,1.18,2.53.22.99.34,2.08.34,3.27v9.84h-3.13v-9.17c0-1.08-.08-2-.24-2.76-.13-.76-.37-1.38-.71-1.85s-.79-.81-1.35-1.01c-.56-.22-1.26-.34-2.09-.34-.34,0-.69.02-1.04.07-.36.04-.71.1-1.04.17-.31.04-.61.1-.88.17-.25.07-.43.12-.54.17v14.56h-3.13ZM383.8,120.07c-.31-.09-.74-.17-1.28-.24-.52-.09-1.22-.13-2.12-.13-1.69,0-2.99.55-3.91,1.65-.9,1.1-1.35,2.56-1.35,4.38,0,1.01.12,1.88.37,2.6.27.72.62,1.31,1.04,1.79.45.47.96.82,1.52,1.04.58.22,1.18.34,1.79.34.83,0,1.6-.11,2.29-.34.7-.25,1.25-.53,1.65-.84v-10.25ZM383.83,133.08c-.27.18-.8.42-1.58.71-.76.27-1.66.4-2.7.4s-2.06-.17-3-.51c-.92-.34-1.73-.85-2.43-1.55-.7-.72-1.25-1.61-1.65-2.66s-.61-2.31-.61-3.78c0-1.28.19-2.45.57-3.51.38-1.08.93-2,1.65-2.76.74-.79,1.64-1.39,2.7-1.82,1.06-.45,2.25-.67,3.57-.67,1.46,0,2.73.11,3.81.34,1.1.2,2.02.39,2.76.57v15.64c0,2.7-.7,4.65-2.09,5.87-1.39,1.21-3.51,1.82-6.34,1.82-1.1,0-2.15-.09-3.13-.27-.97-.18-1.81-.39-2.53-.64l.57-2.73c.63.25,1.39.46,2.29.64.92.2,1.88.3,2.87.3,1.87,0,3.2-.37,4.01-1.11.83-.74,1.25-1.92,1.25-3.54v-.74ZM365.87,114.14c-.56,0-1.04-.18-1.45-.54-.38-.38-.57-.89-.57-1.52s.19-1.12.57-1.48c.4-.38.89-.57,1.45-.57s1.03.19,1.42.57c.4.36.61.85.61,1.48s-.2,1.13-.61,1.52c-.38.36-.85.54-1.42.54ZM367.45,134.83h-3.13v-17.53h3.13v17.53ZM355.8,109.22l3.13-.54v25.65c-.72.2-1.64.4-2.76.61-1.12.2-2.42.3-3.88.3-1.35,0-2.56-.21-3.64-.64s-2-1.03-2.76-1.82c-.76-.79-1.36-1.74-1.79-2.87-.4-1.15-.61-2.43-.61-3.84s.17-2.58.51-3.71c.36-1.12.88-2.09,1.55-2.9s1.49-1.44,2.46-1.89c.99-.45,2.11-.67,3.37-.67,1.01,0,1.9.13,2.66.4.79.27,1.37.53,1.75.78v-8.87ZM355.8,121.01c-.38-.31-.93-.62-1.65-.91-.72-.29-1.51-.44-2.36-.44-.9,0-1.67.17-2.33.51-.63.31-1.15.76-1.55,1.35-.4.56-.7,1.24-.88,2.02-.18.79-.27,1.63-.27,2.53,0,2.04.51,3.63,1.52,4.75,1.01,1.1,2.36,1.65,4.05,1.65.85,0,1.56-.03,2.12-.1.58-.09,1.03-.18,1.35-.27v-11.09ZM325.11,117.81c.72-.18,1.67-.37,2.87-.57s2.56-.3,4.11-.3c1.39,0,2.55.2,3.47.61.92.38,1.65.93,2.19,1.65.56.7.96,1.54,1.18,2.53s.34,2.08.34,3.27v9.84h-3.13v-9.17c0-1.08-.08-2-.24-2.76-.13-.76-.37-1.38-.71-1.85s-.79-.81-1.35-1.01c-.56-.22-1.26-.34-2.09-.34-.34,0-.69.01-1.04.03s-.71.06-1.04.1c-.31.02-.61.06-.88.1-.25.04-.43.08-.54.1v14.8h-3.13v-17.02ZM306.3,138.1c.25.11.56.21.94.3.4.11.8.17,1.18.17,1.24,0,2.2-.28,2.9-.84.7-.54,1.33-1.43,1.89-2.66-1.42-2.7-2.74-5.55-3.98-8.56-1.21-3.03-2.22-6.1-3.03-9.2h3.37c.25,1.01.54,2.1.88,3.27.36,1.17.75,2.37,1.18,3.61.43,1.24.89,2.47,1.38,3.71s1.01,2.43,1.55,3.57c.85-2.36,1.6-4.7,2.22-7.01.63-2.31,1.22-4.7,1.79-7.15h3.24c-.81,3.3-1.71,6.48-2.7,9.54-.99,3.03-2.06,5.88-3.2,8.53-.45,1.01-.92,1.88-1.42,2.6-.47.74-1,1.35-1.58,1.82-.58.47-1.25.82-1.99,1.04-.72.22-1.54.34-2.46.34-.25,0-.51-.02-.78-.07-.27-.02-.54-.07-.81-.13-.25-.04-.48-.1-.71-.17-.2-.07-.35-.12-.44-.17l.57-2.53ZM289.68,131.6c-.22-.54-.53-1.22-.91-2.06-.36-.83-.75-1.73-1.18-2.7s-.89-1.96-1.38-2.97c-.47-1.03-.92-2-1.35-2.9-.43-.92-.83-1.74-1.21-2.46-.36-.72-.65-1.27-.88-1.65-.25,2.65-.45,5.53-.61,8.63-.16,3.08-.29,6.19-.4,9.34h-3.2c.09-2.02.19-4.06.3-6.1.11-2.07.24-4.09.37-6.07.16-2,.31-3.94.47-5.83.18-1.89.37-3.67.57-5.36h2.87c.61.99,1.26,2.16,1.96,3.51s1.39,2.76,2.09,4.25c.7,1.46,1.37,2.93,2.02,4.42.65,1.46,1.25,2.8,1.79,4.01.54-1.21,1.13-2.55,1.79-4.01.65-1.48,1.33-2.96,2.02-4.42.7-1.48,1.39-2.9,2.09-4.25s1.35-2.52,1.96-3.51h2.87c.76,7.53,1.34,15.31,1.72,23.36h-3.2c-.11-3.15-.25-6.26-.4-9.34-.16-3.1-.36-5.98-.61-8.63-.22.38-.53.93-.91,1.65-.36.72-.75,1.54-1.18,2.46-.43.9-.89,1.87-1.38,2.9-.47,1.01-.92,2-1.35,2.97s-.83,1.87-1.21,2.7c-.36.83-.65,1.52-.88,2.06h-2.63ZM177.91,132.17c3.1,0,5.42-.79,6.94-2.36,1.53-1.6,2.29-3.82,2.29-6.67s-.76-5.07-2.29-6.64c-1.53-1.6-3.84-2.39-6.94-2.39-.92,0-1.64.01-2.16.03-.49.02-.84.05-1.04.07v17.87c.2.02.55.04,1.04.07.52.02,1.24.03,2.16.03ZM190.62,123.14c0,2.02-.31,3.79-.94,5.29-.63,1.48-1.52,2.72-2.66,3.71-1.15.97-2.52,1.7-4.11,2.19-1.6.47-3.35.71-5.26.71-.94,0-1.99-.04-3.13-.13-1.12-.07-2.15-.21-3.07-.44v-22.65c.92-.22,1.94-.37,3.07-.44,1.15-.09,2.19-.13,3.13-.13,1.91,0,3.66.25,5.26.74,1.6.47,2.97,1.2,4.11,2.19,1.15.97,2.03,2.2,2.66,3.71.63,1.48.94,3.24.94,5.26ZM195.54,114.66c-.56,0-1.04-.18-1.45-.54-.38-.38-.57-.89-.57-1.52s.19-1.12.57-1.48c.4-.38.89-.57,1.45-.57s1.03.19,1.42.57c.4.36.61.85.61,1.48s-.2,1.13-.61,1.52c-.38.36-.85.54-1.42.54ZM197.12,135.35h-3.13v-17.53h3.13v17.53ZM212.86,120.1c-.31-.09-.74-.17-1.28-.24-.52-.09-1.22-.13-2.12-.13-1.69,0-2.99.55-3.91,1.65-.9,1.1-1.35,2.56-1.35,4.38,0,1.01.12,1.88.37,2.6.27.72.62,1.31,1.04,1.79.45.47.95.82,1.52,1.04.58.22,1.18.34,1.79.34.83,0,1.6-.11,2.29-.34.7-.25,1.25-.53,1.65-.84v-10.25ZM212.89,133.11c-.27.18-.8.42-1.58.71-.76.27-1.66.4-2.7.4s-2.06-.17-3-.51c-.92-.34-1.73-.85-2.43-1.55-.7-.72-1.25-1.61-1.65-2.66s-.61-2.31-.61-3.78c0-1.28.19-2.45.57-3.51.38-1.08.93-2,1.65-2.76.74-.79,1.64-1.39,2.7-1.82,1.06-.45,2.25-.67,3.57-.67,1.46,0,2.73.11,3.81.34,1.1.2,2.02.39,2.76.57v15.64c0,2.7-.7,4.65-2.09,5.87-1.39,1.21-3.51,1.82-6.34,1.82-1.1,0-2.15-.09-3.13-.27-.97-.18-1.81-.39-2.53-.64l.57-2.73c.63.25,1.39.46,2.29.64.92.2,1.88.3,2.87.3,1.87,0,3.2-.37,4.01-1.11.83-.74,1.25-1.92,1.25-3.54v-.74ZM231.08,120c-.31-.09-.74-.17-1.28-.24-.52-.09-1.22-.13-2.12-.13-1.69,0-2.99.55-3.91,1.65-.9,1.1-1.35,2.56-1.35,4.38,0,1.01.12,1.88.37,2.6.27.72.62,1.31,1.04,1.79.45.47.95.82,1.52,1.04.58.22,1.18.34,1.79.34.83,0,1.6-.11,2.29-.34.7-.25,1.25-.53,1.65-.84v-10.25ZM231.11,133.01c-.27.18-.8.42-1.58.71-.76.27-1.66.4-2.7.4s-2.06-.17-3-.51c-.92-.34-1.73-.85-2.43-1.55-.7-.72-1.25-1.61-1.65-2.66s-.61-2.31-.61-3.78c0-1.28.19-2.45.57-3.51.38-1.08.93-2,1.65-2.76.74-.79,1.64-1.39,2.7-1.82,1.06-.45,2.25-.67,3.57-.67,1.46,0,2.73.11,3.81.34,1.1.2,2.02.39,2.76.57v15.64c0,2.7-.7,4.65-2.09,5.87-1.39,1.21-3.51,1.82-6.34,1.82-1.1,0-2.15-.09-3.13-.27-.97-.18-1.81-.39-2.53-.64l.57-2.73c.63.25,1.39.46,2.29.64.92.2,1.88.3,2.87.3,1.87,0,3.2-.37,4.01-1.11.83-.74,1.25-1.92,1.25-3.54v-.74Z"/>
    <rect class="cls-6" x="33.71" width="33.71" height="33.71"/>
    <rect class="cls-1" x="67.42" y="33.71" width="33.71" height="33.71"/>
    <rect class="cls-4" x="101.13" y="33.71" width="33.71" height="33.71"/>
    <rect class="cls-3" y="67.42" width="33.71" height="33.71"/>
    <rect class="cls-7" x="33.71" y="67.42" width="33.71" height="33.71"/>
    <rect class="cls-2" x="101.13" y="67.42" width="33.71" height="33.71"/>
    <rect class="cls-5" x="67.42" y="101.13" width="33.71" height="33.71"/>
    <rect class="cls-8" x="246.84" y="123.13" width="19.26" height="2.41"/>
  </g>
  <g id="Lager_2" data-name="Lager 2">
    <text class="cls-11" transform="translate(166.05 80.95)"><tspan class="cls-14" x="0" y="0">S</tspan><tspan class="cls-12" x="38.08" y="0">ä</tspan><tspan class="cls-13" x="73.37" y="0">k</tspan><tspan class="cls-12" x="107.97" y="0">er digi</tspan><tspan class="cls-9" x="297.02" y="0">t</tspan><tspan class="cls-12" x="323.5" y="0">al </tspan><tspan class="cls-13" x="391.82" y="0">k</tspan><tspan class="cls-12" x="426.42" y="0">ommuni</tspan><tspan class="cls-10" x="670.9" y="0">k</tspan><tspan class="cls-12" x="707.27" y="0">ation</tspan></text>
  </g>
</svg>